<svg version="1.1" id="Layer_1" xmlns="http://www.w3.org/2000/svg" xmlns:xlink="http://www.w3.org/1999/xlink" x="0px" y="0px"
	 width="100%" viewBox="0 0 832 736" enable-background="new 0 0 832 736" xml:space="preserve">
<path fill="#000000" opacity="1.000000" stroke="none" 
	d="
M102.954582,392.755524 
	C101.442924,390.030762 102.911621,388.065277 104.224915,386.524597 
	C106.738411,383.575867 106.171822,381.153656 104.383804,378.036926 
	C83.661819,341.915894 63.073402,305.718170 42.452061,269.539398 
	C36.182854,258.540497 30.054611,247.458008 23.588205,236.576385 
	C21.133984,232.446426 21.584549,229.174088 24.600014,225.732330 
	C29.479481,220.163116 35.226559,215.648575 41.348530,211.578308 
	C63.485615,196.860229 87.363251,185.400711 111.366898,174.169052 
	C114.243591,172.822968 115.929764,173.301712 117.289330,176.229492 
	C119.243996,180.438812 120.706062,184.916809 123.777695,188.970673 
	C125.303780,187.623215 125.416557,185.827621 125.848778,184.188919 
	C133.238525,156.171555 146.153091,130.823990 162.126785,106.751595 
	C174.570557,87.998764 192.163574,77.547066 213.167511,71.596695 
	C231.958466,66.273285 251.108521,63.199387 270.559540,61.577381 
	C283.175079,60.525387 295.767334,59.464321 308.438049,59.630306 
	C310.039276,59.651283 311.805511,59.787514 313.081787,57.829880 
	C310.377411,54.075974 306.157593,52.439178 302.311432,50.306152 
	C300.855438,49.498672 299.287659,48.881573 297.876068,48.007671 
	C295.015289,46.236561 295.197754,44.347496 298.047852,42.816742 
	C302.711761,40.311802 307.616211,40.183155 312.580627,41.832497 
	C316.557343,43.153702 320.659698,44.644562 323.539612,47.632191 
	C327.733917,51.983368 332.479187,52.221142 337.959045,51.620182 
	C348.613281,50.451756 358.740417,53.382805 368.790039,56.437138 
	C370.383942,56.921574 372.186798,57.633114 371.653290,59.807976 
	C371.251831,61.444519 369.706146,61.305984 368.330536,61.167435 
	C361.248108,60.454128 358.383148,61.899506 354.071259,68.340187 
	C354.264984,69.775047 355.560181,70.043335 356.560699,70.465950 
	C379.854736,80.305099 399.073242,95.772324 416.527222,113.712898 
	C429.974030,127.534592 434.894073,145.116241 438.199280,163.294006 
	C441.480957,181.342377 442.921661,199.552917 441.295258,217.913605 
	C438.754089,246.601288 432.014404,273.838531 412.778809,296.358063 
	C400.698883,310.500244 384.824158,319.273590 367.795532,326.141022 
	C361.313232,328.755280 354.864136,331.452820 348.420898,334.162292 
	C346.773163,334.855194 345.014709,335.445709 343.478302,337.337067 
	C346.407227,340.376007 349.255859,343.337402 352.110779,346.292694 
	C362.888672,357.449493 373.339111,368.879822 381.859375,381.921173 
	C384.513702,385.983978 386.863708,390.207428 387.973083,394.977448 
	C389.314178,400.743866 387.575958,404.260834 382.117798,406.589508 
	C375.980011,409.208221 369.578156,411.088593 363.094727,412.609833 
	C359.015533,413.566956 357.788879,415.657715 358.602448,419.787628 
	C362.133514,437.712067 365.451447,455.678528 368.847595,473.629547 
	C368.971436,474.283997 369.141266,474.932098 369.225250,475.591339 
	C370.201599,483.255920 370.340973,484.191742 362.737518,485.351746 
	C352.419037,486.925934 353.424927,494.641174 352.502075,501.348846 
	C348.697357,529.003174 344.795654,556.651306 341.618286,584.380676 
	C340.614532,593.140320 339.300262,601.850281 338.214081,610.592468 
	C337.833862,613.652466 338.180023,617.220398 333.221283,617.805420 
	C330.555634,618.119934 330.842102,622.574219 333.811676,625.187195 
	C336.809143,627.824829 340.161987,630.069214 343.074005,632.790955 
	C347.614716,637.034851 352.432404,641.627930 350.947479,648.537842 
	C349.397034,655.752197 342.810791,657.657410 336.743164,659.634644 
	C333.553558,660.674072 330.270233,660.836792 326.882843,660.466431 
	C322.173370,659.951538 321.239838,661.145142 321.886902,665.821594 
	C322.722626,671.861633 324.557648,677.762390 324.678467,683.953735 
	C322.097839,684.824036 320.769867,683.040039 319.247589,681.931824 
	C303.893860,670.754456 288.532410,659.587158 273.251678,648.310608 
	C270.271118,646.111023 268.360931,645.762146 266.158630,649.456604 
	C257.575653,663.855225 241.388474,663.271301 229.680664,654.853516 
	C225.072464,651.540283 224.228760,645.886292 227.116791,640.497192 
	C229.701950,635.673279 233.862274,632.265930 238.005783,628.929565 
	C240.965073,626.546692 240.854996,624.356567 237.743591,622.789429 
	C227.497147,617.628601 223.740524,607.814941 219.255753,598.303162 
	C201.711273,561.093201 184.540833,523.688782 166.072662,486.939026 
	C154.642700,464.194580 141.104370,442.510803 128.573044,420.316711 
	C127.400864,418.240631 125.832123,417.181549 123.554474,416.689606 
	C115.448021,414.938568 109.864670,409.455475 104.576859,403.585571 
	C101.741905,400.438568 102.735435,396.712006 102.954582,392.755524 
M331.635254,336.067474 
	C347.191101,330.341583 362.023499,323.233093 375.227142,313.062469 
	C389.144440,302.342133 400.053986,289.317383 405.046387,272.171326 
	C409.624634,256.447510 408.991516,240.436493 405.129517,224.775726 
	C399.678741,202.672272 403.614105,205.346542 379.691528,198.252487 
	C351.427826,189.871140 322.182373,187.714310 292.838074,187.005890 
	C287.741821,186.882843 282.903656,186.386276 279.096039,180.213547 
	C280.143036,186.613342 277.569519,186.729691 273.996002,185.752563 
	C264.566254,183.174133 254.883942,182.636978 245.248688,183.515549 
	C211.435547,186.598770 180.158783,198.241913 149.699966,212.488922 
	C148.194519,213.193100 146.396805,213.866104 146.509583,215.903458 
	C147.039505,225.476761 145.643173,235.355804 149.909592,244.405746 
	C159.783325,265.349945 169.899643,286.179688 179.827057,307.098785 
	C181.157104,309.901428 183.033966,312.085266 185.321838,314.086426 
	C202.334091,328.966278 222.101471,338.568054 243.684387,344.743042 
	C246.389389,345.516968 249.407135,345.760498 251.588058,347.672668 
	C258.174744,353.447693 265.661926,353.335205 273.708405,351.986816 
	C280.531952,350.843414 286.574432,347.322144 293.242188,346.099854 
	C306.049957,343.752014 318.556213,340.386932 331.635254,336.067474 
M146.813828,178.286591 
	C150.541672,177.536209 147.891602,180.375900 147.799942,180.640793 
	C145.505707,187.270493 143.867126,194.061249 142.679749,200.956757 
	C142.158508,203.983734 141.669891,207.096542 143.082962,210.304352 
	C152.862762,206.114716 162.207001,201.757156 171.806931,198.064346 
	C202.869446,186.115479 234.221039,175.441437 268.385406,179.794296 
	C272.909149,180.370667 274.019409,178.112274 273.227966,174.130157 
	C272.266174,169.291138 272.578491,164.473846 274.108948,159.822128 
	C274.883270,157.468658 276.161072,154.634628 279.107880,155.051834 
	C282.503876,155.532639 281.105469,158.754623 281.115753,160.833298 
	C281.140533,165.837509 280.842468,170.872025 282.546082,175.672775 
	C284.537933,181.285690 289.409119,182.156815 293.032623,177.509232 
	C295.587219,174.232666 297.867493,170.735214 300.164825,167.266586 
	C304.530640,160.674927 309.089508,159.797363 314.117554,165.941925 
	C319.536865,172.564636 328.469849,175.070618 332.743988,182.833633 
	C333.192413,183.648102 334.732269,184.055023 335.840607,184.276321 
	C339.100647,184.927277 342.392914,185.426102 345.682678,185.916748 
	C350.176300,186.586975 352.495850,184.561493 353.262299,180.115433 
	C354.411102,173.451294 352.614105,167.171341 350.817078,160.981644 
	C344.728119,140.008667 333.399567,121.832977 320.197388,104.691803 
	C318.878876,102.979942 316.830444,101.570724 316.663666,98.358368 
	C320.984009,100.449387 323.110199,103.930313 325.696228,106.811943 
	C343.575195,126.734589 356.914734,148.726028 357.362885,176.607819 
	C357.445099,181.722015 360.041870,183.288452 365.056152,181.567108 
	C369.638702,179.993988 374.082001,179.479996 378.671265,181.511154 
	C380.167358,182.173325 381.874573,182.501312 383.516968,182.665985 
	C391.624878,183.478867 394.668152,180.153305 392.892944,172.306885 
	C390.406219,161.315552 385.429413,151.333817 380.177032,141.465378 
	C379.255066,139.733139 377.648712,138.093948 378.244049,135.132935 
	C380.736755,137.357132 381.869232,139.749130 383.145844,142.026138 
	C388.210114,151.058746 392.028595,160.646011 395.882263,170.231842 
	C397.672455,174.684952 399.358582,174.878326 402.873413,171.680298 
	C406.497955,168.382462 408.451416,164.198318 408.739777,159.358307 
	C409.725739,142.809647 398.924500,127.217949 384.039642,123.077240 
	C376.830811,121.071869 369.929901,118.187981 363.766937,113.643257 
	C357.348755,108.910316 351.033325,103.716125 343.909027,100.331688 
	C330.371185,93.900421 317.960327,84.285622 302.007477,83.930618 
	C301.205597,83.912773 300.422852,83.437469 299.614532,83.245407 
	C289.788361,80.910622 279.964722,77.377754 270.167725,83.456207 
	C269.235443,84.034630 267.937775,84.081917 266.791260,84.248489 
	C251.935028,86.406929 239.181366,92.930435 228.568237,103.381203 
	C212.088074,119.609261 203.911591,140.218155 198.239944,162.111115 
	C196.601349,168.436279 196.416122,175.127243 193.263229,180.922104 
	C196.147949,140.679916 206.336243,104.459198 247.369019,85.349152 
	C242.124924,85.954834 237.431747,88.016006 232.427704,88.958191 
	C219.499603,91.392380 207.148911,95.681984 198.538498,106.361557 
	C188.370483,118.973030 175.452560,127.273758 160.420944,132.680862 
	C157.883484,133.593628 154.946564,134.656479 153.771851,136.898209 
	C149.784897,144.506561 143.905930,151.010574 140.184174,158.542908 
	C135.887283,167.239243 132.658829,176.607056 130.077011,186.131851 
	C128.184677,193.113052 126.867172,199.458542 131.356583,206.028900 
	C133.862335,209.696136 135.237854,214.123260 137.260468,218.138565 
	C138.168289,219.940750 138.888947,222.036453 142.311066,223.611557 
	C140.349152,215.382050 138.806732,208.145935 140.004532,200.748260 
	C141.234283,193.153183 143.067566,185.743668 146.813828,178.286591 
M113.842789,298.713074 
	C116.110466,303.872223 116.157722,310.148376 120.220833,314.305328 
	C125.794769,320.008057 129.595566,326.844910 133.669449,333.477936 
	C137.324844,339.429626 138.327133,345.967285 136.360199,353.088623 
	C134.126663,361.175262 131.571167,369.473236 136.645279,377.656860 
	C138.903824,381.299530 138.910004,385.076202 138.581055,389.596832 
	C138.237747,394.314819 139.980774,399.676147 140.827927,404.737122 
	C141.761856,410.316467 145.933456,414.699127 152.298340,415.848907 
	C155.171738,416.367950 157.524002,418.065735 159.546158,420.077606 
	C162.776672,423.291718 166.482468,425.734436 170.517242,427.820190 
	C177.906464,431.639893 182.860840,436.828064 184.772614,445.744568 
	C186.869675,455.525269 194.888870,461.174469 204.258255,463.866333 
	C208.557159,465.101471 212.379669,466.289398 215.402130,469.788818 
	C218.441498,473.307831 223.638412,475.281342 227.066055,473.978638 
	C231.612778,472.250580 234.794403,473.187103 238.758682,474.527588 
	C244.625351,476.511261 247.151215,474.302155 248.088425,468.181305 
	C249.495361,458.992798 244.101624,452.222687 239.889679,445.316498 
	C237.142960,440.812744 232.578568,442.210480 231.016190,447.409637 
	C230.061859,450.585388 229.448456,453.862061 228.585159,457.067322 
	C228.124695,458.776978 226.746597,460.833862 225.205704,459.776215 
	C222.205078,457.716675 217.393463,459.147522 216.069717,454.325378 
	C215.122253,454.991089 214.613281,455.390869 214.065353,455.727112 
	C208.854630,458.925079 205.824326,457.616608 205.170532,451.714966 
	C204.749283,447.912537 205.206909,443.942017 204.319702,440.277039 
	C202.604004,433.189789 205.594681,428.305695 210.714828,424.199219 
	C213.568161,421.910767 216.455063,419.501038 219.699341,417.901489 
	C224.499710,415.534729 225.109924,412.876312 222.767471,408.079987 
	C211.659485,385.335632 200.907806,362.417450 189.982330,339.583618 
	C176.899979,312.241913 163.778275,284.919037 150.657990,257.595520 
	C141.428436,238.374603 132.236694,219.135086 122.893913,199.969254 
	C119.657158,193.329330 114.144028,192.502319 108.954865,197.513123 
	C107.398911,199.015610 105.880127,200.605286 104.124992,201.844360 
	C96.575691,207.173950 93.424644,214.504150 92.928169,223.613495 
	C92.395752,233.382355 91.402725,243.162262 89.887505,252.823914 
	C89.266411,256.784302 89.002487,260.313110 90.595039,263.979126 
	C92.887695,269.256775 95.985420,274.044739 100.337578,277.743073 
	C106.798813,283.233582 110.737213,290.208191 113.842789,298.713074 
M284.765991,429.381744 
	C271.089569,432.480896 257.059814,433.940643 243.222717,437.617493 
	C243.620514,439.084167 243.716736,439.913788 244.057632,440.626373 
	C252.465836,458.202667 260.953217,475.741333 269.280487,493.355774 
	C270.781952,496.531799 273.049500,497.060699 276.151123,496.871582 
	C303.165619,495.224365 329.601166,490.313354 355.562927,482.790222 
	C364.182007,480.292572 365.050140,479.177521 363.516724,470.341400 
	C360.700806,454.115082 357.530151,437.948181 354.324921,421.792725 
	C353.235321,416.300842 351.853424,415.688965 346.208984,416.852051 
	C326.013763,421.013519 305.814911,425.157379 284.765991,429.381744 
M313.057495,640.271851 
	C309.231140,618.676453 305.291748,597.100037 301.650452,575.473450 
	C300.619019,569.347595 298.340454,564.230652 294.021545,559.684631 
	C285.407928,550.617981 276.439636,541.945923 266.932037,533.837463 
	C265.149567,532.317261 263.220642,529.231567 260.719391,530.830139 
	C258.109924,532.497925 260.384521,535.427124 261.085541,537.605347 
	C265.425842,551.091431 271.600952,563.857849 276.752869,577.027832 
	C277.960022,580.113647 278.794769,583.348328 279.735077,586.533875 
	C280.096130,587.757080 279.766449,588.865540 278.601654,589.550476 
	C277.347626,590.287903 276.278229,589.679260 275.502411,588.778503 
	C273.767242,586.763977 272.078278,584.699158 270.511810,582.551758 
	C264.625519,574.482483 258.887573,566.303162 252.893570,558.315491 
	C250.889847,555.645264 249.145279,552.511841 245.665497,551.048462 
	C244.503830,553.689331 246.005020,555.528992 246.816162,557.433044 
	C251.455719,568.323730 257.065826,578.720276 262.932159,588.989929 
	C263.779633,590.473572 265.110046,592.408325 263.174866,593.951477 
	C261.374329,595.387329 259.729126,593.997375 258.235962,592.940186 
	C257.150024,592.171265 256.104797,591.339478 255.083557,590.485352 
	C247.294846,583.971130 239.713898,577.196594 231.370941,571.375122 
	C229.375824,569.982971 227.246628,567.778198 224.664215,569.317200 
	C221.821228,571.011475 222.140259,574.207458 222.536026,577.020813 
	C223.996567,587.402893 226.321381,597.594055 229.409592,607.621521 
	C230.388351,610.799561 232.121750,613.130310 234.828232,615.078674 
	C253.879944,628.793823 273.090149,642.307861 291.731567,656.563721 
	C298.292389,661.581055 303.816559,663.392761 311.216766,658.937378 
	C314.292236,657.085754 315.711334,655.256714 315.175873,651.888000 
	C314.602478,648.280762 313.932098,644.688904 313.057495,640.271851 
M302.033203,373.191315 
	C292.465179,374.135986 284.958984,369.650635 278.139832,363.781036 
	C274.750885,360.864014 272.242950,360.918610 269.429047,364.419647 
	C265.831390,368.895844 261.365356,372.322968 255.904236,374.339111 
	C238.634796,380.714539 224.766312,371.169281 224.720779,352.854523 
	C224.716644,351.190826 224.851349,349.526215 224.826691,347.863403 
	C224.810776,346.789948 225.235092,345.449829 222.946777,344.851837 
	C220.910431,353.545380 221.214874,364.085907 209.085007,365.947113 
	C209.131699,366.742981 209.016983,367.291931 209.208893,367.694824 
	C214.860214,379.559540 220.569046,391.396912 226.196930,403.272675 
	C227.362930,405.733124 229.340027,405.983032 231.610016,405.729309 
	C239.038269,404.898987 246.476807,404.143860 253.887604,403.177399 
	C272.655487,400.729950 291.426697,398.297668 310.164429,395.633087 
	C321.336304,394.044403 332.501129,392.338135 343.482330,389.627533 
	C346.424805,388.901215 347.156586,387.609222 346.959808,384.377319 
	C346.529266,377.304962 341.490326,374.503235 336.483337,371.561432 
	C333.616852,369.877289 331.326752,368.066284 330.969788,364.466431 
	C330.380371,358.522583 329.046509,352.630219 329.988129,346.599457 
	C330.240692,344.981995 330.800659,343.005829 328.456970,342.551880 
	C326.483307,342.169647 325.522552,343.749237 324.814514,345.335541 
	C322.713531,350.042603 320.766327,354.824097 318.504639,359.452209 
	C315.235504,366.141846 310.522705,371.313324 302.033203,373.191315 
M334.324066,355.255768 
	C334.400909,361.770355 336.199097,366.989471 342.750183,370.197083 
	C347.485382,372.515625 351.584869,376.159180 355.058746,380.274628 
	C360.175415,386.336273 359.212738,389.797974 351.594788,392.133911 
	C340.113403,395.654510 328.238861,397.388458 316.420197,399.213684 
	C289.972870,403.298035 263.444824,406.810547 236.823761,409.603394 
	C234.820084,409.813599 232.446304,409.664917 230.558289,411.825409 
	C231.654846,417.493530 232.969254,423.319183 233.855988,429.209229 
	C234.454620,433.185547 236.186768,433.894836 239.985870,433.155243 
	C265.602753,428.168365 291.311615,423.646088 316.895203,418.498718 
	C336.615082,414.531158 356.371918,410.541321 375.463654,404.024689 
	C384.209351,401.039459 385.331665,398.262512 381.010559,390.345581 
	C370.984589,371.976532 356.334076,357.338257 341.776062,342.673798 
	C338.989624,339.866943 336.698883,341.198975 335.241547,344.480011 
	C333.824860,347.669556 334.421539,351.038300 334.324066,355.255768 
M253.627502,370.283417 
	C259.497894,367.793579 264.481781,364.321625 268.260498,357.543182 
	C259.754822,357.675964 253.586319,354.677338 247.318207,350.929504 
	C242.408920,347.994110 236.172668,347.277985 230.034927,345.427826 
	C228.710312,353.609375 228.266037,361.012360 233.848419,366.838745 
	C239.064911,372.283264 245.866547,372.719727 253.627502,370.283417 
M298.105896,349.683350 
	C291.072571,350.828735 284.837708,354.281372 277.248627,356.072540 
	C282.949585,362.634766 288.997528,366.814301 296.513702,368.528320 
	C300.193604,369.367493 303.826843,368.587524 306.941040,366.258606 
	C313.949493,361.017578 316.383759,353.153778 319.918854,344.947388 
	C312.194305,346.619110 305.561798,348.054535 298.105896,349.683350 
M431.885651,240.188904 
	C433.605682,233.497665 432.949493,226.977722 430.192780,220.710480 
	C428.066650,215.876907 425.318817,214.593399 421.807983,216.433044 
	C416.199036,219.372101 414.330353,224.112717 417.070831,228.450668 
	C422.334961,236.783371 422.044861,239.294067 415.127197,245.878677 
	C412.539856,248.341461 412.668427,251.430939 414.214630,254.101349 
	C415.813751,256.863129 418.319946,255.241150 420.395447,254.276474 
	C426.191681,251.582443 429.653900,246.878403 431.885651,240.188904 
M217.689072,346.670746 
	C217.242813,340.681427 214.917282,337.093964 211.261978,337.810089 
	C206.484009,338.746063 201.928635,340.666779 197.262115,343.042572 
	C199.676895,348.173126 201.730225,352.856873 204.061371,357.397949 
	C206.374969,361.904846 211.393204,362.301575 214.466583,358.234192 
	C216.827408,355.109802 217.823257,351.448456 217.689072,346.670746 
M292.323456,501.486450 
	C287.430176,499.404541 284.433075,500.201447 283.726074,504.113037 
	C281.284027,517.624512 284.950287,529.695374 292.801392,540.682922 
	C292.885620,540.800842 293.400085,540.611389 294.284912,540.481628 
	C293.716156,527.777405 293.145355,515.027527 292.323456,501.486450 
M129.321381,386.961151 
	C127.948441,384.869690 126.041870,386.470428 124.398811,386.274231 
	C122.083305,385.997772 119.965874,387.365295 117.534233,386.967651 
	C112.082687,386.076141 104.990234,394.831940 107.719246,399.525726 
	C110.763756,404.762146 115.440636,408.676514 121.303864,411.038971 
	C122.778419,407.282928 121.430641,404.713409 119.752815,402.224640 
	C121.779907,399.803619 125.052681,400.210083 127.400116,398.041290 
	C125.024734,397.733978 123.068085,397.470978 121.108665,397.230621 
	C119.720802,397.060364 118.410370,396.685394 118.114136,395.115295 
	C117.794884,393.423187 119.213257,392.871002 120.353882,392.234100 
	C123.241562,390.621674 126.149887,389.046204 129.321381,386.961151 
M319.008789,540.115417 
	C319.078094,540.941589 319.032074,541.797852 319.238159,542.588318 
	C319.872986,545.023315 320.512817,547.836243 323.672668,547.741455 
	C327.073792,547.639465 327.701752,544.784485 327.972656,542.023315 
	C328.101837,540.706909 328.013611,539.369751 328.036713,538.042175 
	C328.101532,534.318176 326.618591,530.558777 328.975006,526.901428 
	C330.676697,524.260254 330.280304,521.503723 327.764343,519.287476 
	C325.847229,517.598755 323.727142,516.957153 321.351624,518.135437 
	C318.337799,519.630310 317.635345,522.375916 318.241119,525.315063 
	C319.192505,529.931396 318.973328,534.563293 319.008789,540.115417 
M219.991867,433.866577 
	C220.602280,434.991516 219.795441,436.520172 221.001816,437.539978 
	C222.746567,436.474243 222.743988,432.768890 225.553802,433.844330 
	C228.633362,435.023010 226.518860,438.461700 227.449707,440.509979 
	C231.372162,433.474823 229.038284,426.615540 227.071716,419.586212 
	C215.445450,423.615509 207.861572,431.266724 209.058487,437.762817 
	C211.501190,433.377045 215.455261,432.985565 219.991867,433.866577 
M204.531616,334.960846 
	C205.338501,333.676056 204.243362,333.157196 203.488632,332.657715 
	C198.310181,329.230530 193.098251,325.853943 187.152878,321.975555 
	C188.624542,325.187286 189.679749,327.732971 190.931198,330.178192 
	C195.698486,339.493011 192.893982,339.725464 204.531616,334.960846 
M414.965393,240.574295 
	C418.504944,238.885071 418.671112,237.364258 415.443756,233.938843 
	C413.943512,235.897751 414.303528,237.994537 414.965393,240.574295 
z"/>
<path fill="#000000" opacity="1.000000" stroke="none" 
	d="
M689.228516,602.586304 
	C688.982300,596.460510 688.704834,590.800903 688.644653,585.138977 
	C688.602478,581.174011 686.725159,579.843140 682.954651,580.330017 
	C672.399902,581.692871 661.836060,582.995178 651.185913,583.373901 
	C648.630188,583.464844 647.143127,584.736694 646.879944,587.297729 
	C646.659119,589.446899 646.397522,591.602478 646.363037,593.758606 
	C646.032776,614.418457 644.216492,634.957214 641.135437,655.374817 
	C639.246948,667.889526 630.616150,676.727295 619.514648,677.645813 
	C612.454590,678.229919 605.948792,676.233643 600.345947,671.882080 
	C594.755737,667.540344 594.385193,661.532532 599.270325,655.143738 
	C602.844482,650.469543 607.368164,646.736877 612.264832,643.537903 
	C614.796936,641.883789 615.795654,639.882935 615.717651,636.910706 
	C615.293884,620.776001 614.921936,604.639343 614.667664,588.501160 
	C614.582031,583.066589 610.544373,583.691223 607.242432,583.395447 
	C597.267761,582.502197 587.435852,581.070312 578.019287,577.418823 
	C571.042053,574.713257 564.814758,570.994751 560.400452,564.814697 
	C558.857971,562.655273 556.970337,561.879517 554.464722,561.906189 
	C542.145996,562.037354 529.848083,561.367004 517.504089,561.684692 
	C498.043671,562.185547 478.553925,561.404846 459.079193,561.539124 
	C445.262665,561.634338 431.451874,562.100769 417.629059,561.743896 
	C413.489471,561.637024 411.845703,560.687683 412.382019,555.911682 
	C414.978394,532.790894 417.192657,509.626495 419.454132,486.468933 
	C421.602753,464.467133 423.692108,442.459229 425.701721,420.444366 
	C426.377502,413.041199 426.782501,412.354645 434.250916,412.006470 
	C450.382782,411.254364 466.517731,410.537201 482.658539,410.032806 
	C486.580536,409.910217 489.242828,408.773346 490.981110,405.080200 
	C493.054565,400.674774 496.026917,397.199829 501.648468,397.528809 
	C502.547729,397.581421 503.569153,397.010864 504.402191,396.509338 
	C515.701111,389.707733 527.538330,383.982697 539.621643,378.735718 
	C541.104797,378.091675 542.765442,377.538513 543.481323,375.693237 
	C542.719971,373.011169 539.947327,373.723297 538.231018,372.675629 
	C537.231812,372.065765 535.998657,371.646118 536.148621,370.206451 
	C536.293274,368.817627 537.458008,368.405731 538.630371,368.118103 
	C540.395813,367.684967 542.231812,367.433228 543.906860,366.772461 
	C545.187500,366.267303 546.141479,365.097351 545.354126,363.564423 
	C544.648804,362.191345 543.409790,362.636200 542.284180,363.039337 
	C538.023560,364.565216 533.702698,365.428528 529.105774,365.437531 
	C517.690002,365.459900 509.578705,359.771484 503.099579,351.052856 
	C502.029449,349.612854 500.551422,347.754547 502.082916,346.124725 
	C503.819946,344.276154 505.410553,346.225281 506.785858,347.289581 
	C509.396057,349.309509 511.627533,348.701782 513.945435,346.718994 
	C519.747314,341.756104 520.377136,337.026093 516.017151,331.022705 
	C505.933289,317.138092 501.827209,301.193542 499.556488,284.479645 
	C498.212524,274.587189 499.371765,264.574432 497.047638,254.692413 
	C495.610748,248.582809 496.460754,242.129471 499.846741,236.312454 
	C502.073181,232.487564 501.828400,227.943268 502.672607,223.723846 
	C509.175201,191.222946 520.194275,160.569168 539.401978,133.230591 
	C558.315063,106.311188 584.054565,91.067856 616.830444,87.530190 
	C634.404724,85.633324 651.731079,86.637321 668.845825,90.906654 
	C671.644836,91.604866 673.973206,91.335327 676.539917,90.303307 
	C689.911987,84.926643 703.715393,80.833267 718.193054,80.928871 
	C740.858459,81.078537 758.959656,90.610107 772.082947,109.288689 
	C782.778748,124.512192 789.262756,141.644394 793.996277,159.392532 
	C799.650024,180.591003 804.610229,201.977692 809.625977,223.340347 
	C810.618164,227.566193 811.965088,231.380554 813.969177,235.295273 
	C818.519470,244.183838 820.117310,254.093735 815.378967,263.180328 
	C811.606445,270.414734 810.695618,277.902832 809.498962,285.573425 
	C807.757568,296.736053 805.908875,307.884033 803.927551,319.006531 
	C802.255371,328.393219 805.643127,332.945221 815.087769,333.693024 
	C817.117859,333.853790 819.923279,332.828094 820.783691,335.500549 
	C821.551636,337.886047 819.170776,339.311005 817.705688,340.812317 
	C816.199158,342.356140 814.616089,343.899933 812.826782,345.080322 
	C804.603577,350.504944 796.528625,355.549713 790.302063,363.947418 
	C784.157959,372.233948 773.174072,373.580017 763.257507,375.213074 
	C759.003540,375.913574 754.651184,376.037018 750.338379,376.351624 
	C748.513428,376.484772 746.750793,376.679169 745.231750,377.719788 
	C745.230713,380.216919 747.049377,381.395691 748.288025,382.869080 
	C754.401550,390.141602 760.573730,397.370117 765.119080,405.784943 
	C766.143799,407.682190 767.106628,409.657837 767.753113,411.706238 
	C770.024902,418.904358 768.225220,422.824097 761.176453,425.474152 
	C756.354126,427.287109 751.428406,428.925659 746.425354,430.128326 
	C741.633911,431.280121 740.847717,433.447754 742.531555,437.951447 
	C750.985718,460.563354 758.922485,483.364136 765.842102,506.496704 
	C770.893188,523.382629 775.996826,540.269104 777.644348,557.962891 
	C778.015564,561.949646 776.675842,563.647766 772.823059,564.518921 
	C758.219727,567.820984 743.592957,570.994385 728.804321,573.337036 
	C723.872986,574.118225 720.941284,575.532043 720.678284,581.609070 
	C720.245483,591.607239 720.719299,601.600586 720.177185,611.583679 
	C719.807312,618.393616 719.742798,625.221436 719.298401,632.025391 
	C719.069153,635.536621 720.073547,637.900024 723.165222,639.886475 
	C727.786804,642.855774 732.026367,646.420044 735.473450,650.773865 
	C741.758972,658.712524 740.274963,665.637512 731.333008,670.400269 
	C713.686035,679.799622 696.951843,670.472595 693.766907,649.202026 
	C691.476746,633.907410 690.015503,618.509521 689.228516,602.586304 
M535.520142,287.039764 
	C538.952881,296.675842 543.647949,305.660461 549.620361,313.956299 
	C567.216614,338.397919 591.672241,352.801605 619.818176,361.760345 
	C625.338318,363.517395 630.914795,364.806091 635.792786,368.454651 
	C639.692444,371.371460 644.583435,371.632446 649.640808,371.146210 
	C659.561523,370.192474 668.354126,365.433807 678.009949,363.582550 
	C705.775208,358.259277 732.070801,349.040924 755.024292,332.017548 
	C769.973816,320.930328 781.295105,307.011963 786.149963,288.594391 
	C790.796631,270.966797 787.827515,253.697311 784.340576,236.257675 
	C782.275513,225.929611 776.521301,220.640854 766.898987,218.417511 
	C766.736633,218.380005 766.571838,218.349487 766.413147,218.300034 
	C736.572021,209.001709 705.772766,206.389328 674.773987,205.306671 
	C669.719604,205.130142 664.810364,205.070694 660.591797,200.761520 
	C660.108398,205.019073 657.727051,205.022507 655.015198,204.221695 
	C647.566223,202.022018 639.905640,201.690353 632.240356,201.924500 
	C595.799316,203.037643 562.671082,215.841873 530.233948,231.036560 
	C527.944092,232.109177 527.340637,233.953400 527.296692,236.324280 
	C526.978943,253.463348 529.398560,270.155457 535.520142,287.039764 
M428.577454,556.941162 
	C474.716003,556.950623 520.854553,556.968018 566.993103,556.962708 
	C575.871277,556.961670 576.015442,556.786133 576.637146,547.767395 
	C576.694397,546.937256 576.613159,546.092407 576.724731,545.271912 
	C577.659363,538.395447 577.462585,531.370483 579.358704,524.088013 
	C586.811096,526.626160 591.783936,533.202087 600.060913,535.786926 
	C601.719116,516.022095 602.299744,496.865204 602.941101,477.355682 
	C599.787598,477.187561 597.598755,475.979034 596.849426,473.093475 
	C588.370728,477.247864 586.312317,476.156433 585.347168,467.187744 
	C585.044556,464.375519 585.174927,461.499603 584.683228,458.728027 
	C583.188843,450.305847 586.733826,443.849030 593.825623,440.494141 
	C604.330872,435.524445 607.050659,427.526001 605.811646,417.016754 
	C605.657043,415.705200 605.800964,414.353882 605.856079,413.023071 
	C605.976196,410.122559 604.450867,409.283508 601.780945,409.475830 
	C586.336670,410.588531 570.866516,411.069946 555.388733,411.484558 
	C545.244324,411.756348 535.115723,412.594940 524.977173,413.123993 
	C521.009216,413.331024 519.478882,414.908630 521.117676,418.904816 
	C521.932190,420.890991 522.350830,423.043213 522.901611,425.132660 
	C523.385315,426.967865 523.626038,428.893066 521.871826,430.160828 
	C519.812622,431.649078 518.024719,430.316406 516.470215,429.068848 
	C514.436707,427.436859 512.562378,425.606415 510.089417,423.385132 
	C510.198578,425.507935 510.392822,426.955200 510.319672,428.388855 
	C510.198853,430.754425 511.767059,433.909912 508.930939,435.211060 
	C505.603729,436.737518 504.716888,432.896820 502.792664,431.343994 
	C502.571472,431.165466 502.191986,431.183105 501.774506,431.083069 
	C500.059235,432.783966 500.992035,436.815216 497.191162,436.725128 
	C493.331329,436.633606 490.900208,434.507690 488.919800,431.247498 
	C486.687561,427.572693 485.119598,423.897705 485.634094,419.519806 
	C486.002838,416.382568 484.678711,414.878265 481.384583,415.029236 
	C466.087585,415.730164 450.788361,416.385986 435.487488,416.996857 
	C431.920563,417.139313 430.561279,419.047638 430.327576,422.387482 
	C429.979767,427.357697 429.464172,432.317169 428.962585,437.275452 
	C427.105896,455.629974 425.172516,473.976929 423.369141,492.336670 
	C421.549530,510.861542 419.965973,529.410278 418.047180,547.924500 
	C417.146790,556.612488 417.193085,556.916687 426.108398,556.941040 
	C426.608093,556.942383 427.107788,556.940369 428.577454,556.941162 
M592.754028,551.260498 
	C591.488647,552.343811 590.171692,553.372986 588.967468,554.520447 
	C585.309875,558.005615 586.100586,561.382385 590.980164,562.965393 
	C592.556580,563.476807 594.246277,563.627380 595.851685,564.062622 
	C601.853943,565.689514 608.094482,567.306030 611.060059,573.449951 
	C613.142090,577.763123 616.203552,579.001526 620.602173,579.005432 
	C639.075867,579.021729 657.529053,578.599365 675.898560,576.511414 
	C685.982666,575.365295 696.033447,573.922058 706.094177,572.574768 
	C710.471252,571.988647 712.941284,570.340698 714.546936,565.294067 
	C717.099548,557.271484 719.398193,549.815308 715.330322,541.805054 
	C715.190857,541.530334 715.189453,541.136108 715.245056,540.818787 
	C717.441040,528.277527 717.605957,515.152161 725.474121,504.214539 
	C731.132812,496.348328 734.574158,488.009979 732.292786,478.034180 
	C731.645569,475.203888 732.451965,472.244263 734.514709,470.103821 
	C743.534790,460.744141 740.832520,450.168457 737.556213,439.721100 
	C736.150879,435.240021 732.892395,433.690399 727.706726,434.833252 
	C707.240051,439.343842 686.677429,443.423279 666.129517,447.559204 
	C650.959900,450.612549 635.738525,453.411224 620.585449,456.542572 
	C617.207886,457.240509 613.466553,458.454285 613.328125,462.915771 
	C613.171631,467.960022 613.346313,473.109741 618.444092,476.129181 
	C625.196716,480.128754 626.384766,482.769012 625.388855,490.713776 
	C624.168030,500.453186 619.074707,508.911072 616.514526,518.227783 
	C615.217285,522.948669 615.090637,528.182373 611.911926,532.359253 
	C606.566711,539.383118 600.991943,546.158447 592.754028,551.260498 
M595.918213,138.395432 
	C593.748657,142.331757 591.407227,146.184235 589.439758,150.219131 
	C581.466797,166.570526 577.605469,184.100708 574.844604,201.936066 
	C574.621338,203.378494 573.586243,204.945160 574.981689,206.141083 
	C576.454468,207.403336 578.336670,206.861526 579.654175,205.919327 
	C589.016174,199.224335 601.921326,202.182327 610.851074,194.393967 
	C610.963379,194.295990 611.168640,194.263321 611.328796,194.267395 
	C620.526245,194.501251 629.770203,192.012177 638.885864,196.084915 
	C647.302979,199.845535 652.808105,195.920258 653.263428,186.917725 
	C653.463257,182.965530 653.434326,178.838379 656.040649,175.443695 
	C657.051758,174.126709 658.234314,172.588684 660.132019,173.239502 
	C661.951050,173.863342 661.468628,175.686691 661.417542,177.146667 
	C661.248474,181.978683 661.219421,186.773834 662.289246,191.558502 
	C663.185913,195.569366 665.110474,198.324997 669.400513,198.761765 
	C680.801819,199.922501 692.234619,201.369263 703.671204,199.692581 
	C708.349426,199.006714 712.385803,199.752518 716.702209,201.540680 
	C727.012329,205.812027 735.111450,199.391495 733.555359,188.486313 
	C733.274170,186.515900 732.766479,184.571274 732.267578,182.639435 
	C726.750183,161.272873 715.633057,142.805206 702.622742,125.305634 
	C701.377075,123.630196 699.348145,122.195084 699.609497,119.432800 
	C702.181213,120.018433 703.268372,121.829483 704.561707,123.268768 
	C722.511108,143.244812 736.527527,165.124725 737.960083,193.012024 
	C738.143433,196.581680 739.829102,198.239426 743.446899,197.559296 
	C748.424927,196.623428 753.326782,196.915955 758.336670,197.690872 
	C767.056458,199.039627 773.547546,191.413956 771.000732,183.017624 
	C769.843689,179.202927 768.257080,175.518265 766.857727,171.777451 
	C766.223511,170.082123 765.231689,168.455597 765.510193,166.111908 
	C769.024780,168.908524 768.978455,173.508728 772.241333,175.797531 
	C776.220215,172.941055 777.084656,169.329193 773.900391,167.526855 
	C768.504700,164.472931 767.311157,158.671814 763.755920,153.928482 
	C761.023743,154.802048 759.439087,152.543793 757.392822,150.811295 
	C754.721252,148.549347 755.540833,146.114471 757.337158,142.421158 
	C751.035339,146.741714 751.018311,142.003799 749.903687,139.206055 
	C743.686523,139.597855 736.689270,134.308044 734.977844,127.968994 
	C733.020264,128.128281 731.006104,128.375046 730.166748,125.776161 
	C729.846497,124.784317 728.803345,124.322380 727.681641,124.862831 
	C725.477905,125.924599 723.958069,124.215866 722.118103,123.630272 
	C717.249023,122.080605 714.062683,117.970490 709.538757,115.686020 
	C705.471130,113.631996 701.146545,114.430481 697.189514,112.143120 
	C689.016724,107.418915 679.988220,106.065399 670.513916,108.095535 
	C664.128113,109.463867 657.535034,109.614441 651.106445,108.615990 
	C640.594238,106.983284 630.861389,109.851471 621.422852,113.542480 
	C609.851807,118.067421 602.872192,127.824966 595.918213,138.395432 
M594.335205,123.146217 
	C590.763489,124.303337 587.457947,126.082306 584.107483,127.616844 
	C579.596375,129.682968 577.651306,134.096634 573.531250,136.147766 
	C566.777466,139.510056 561.799194,144.809830 557.690125,151.034470 
	C550.284424,162.253250 541.280762,172.426758 535.240356,184.524612 
	C531.314758,192.386902 526.954956,200.214401 526.098999,209.190140 
	C525.248474,218.110001 531.748535,222.357651 539.940430,218.484787 
	C541.882812,217.566483 543.637268,215.825165 545.867004,216.035553 
	C554.120972,216.814423 560.870300,212.159393 568.328308,210.092560 
	C571.698181,209.158676 572.877686,207.087616 572.965637,203.482590 
	C573.233398,192.509064 574.461792,181.608932 576.967163,170.890274 
	C580.563110,155.505859 586.193115,141.031067 595.865417,128.330673 
	C597.228882,126.540367 599.190369,124.279747 594.335205,123.146217 
M661.073975,389.345978 
	C650.646362,392.146393 642.195068,398.842865 632.833435,403.741394 
	C631.717163,404.325500 630.803284,405.513000 630.092163,406.612610 
	C628.184937,409.562134 626.520630,412.384491 628.404663,416.300995 
	C630.374756,420.396545 633.265442,421.264618 637.324219,420.744751 
	C653.826904,418.630859 670.368408,416.801056 686.841980,414.485718 
	C698.369080,412.865601 709.814636,410.657776 721.283203,408.636261 
	C723.189636,408.300201 725.982361,407.896759 725.285156,405.268524 
	C723.928650,400.154816 723.163330,394.243591 719.304749,390.673431 
	C715.401245,387.061768 713.930359,382.870178 712.627747,378.255157 
	C711.860229,375.535889 711.274597,372.765076 710.499634,370.048096 
	C709.960327,368.157043 709.642639,365.815155 707.250305,365.460022 
	C704.683594,365.079010 704.097961,367.374725 703.253662,369.178070 
	C700.439209,375.189758 697.890686,381.261475 693.466553,386.470306 
	C687.542847,393.444733 683.145264,395.002838 674.462524,391.774628 
	C670.408020,390.267151 666.445740,388.364990 661.073975,389.345978 
M644.495178,375.698456 
	C640.131836,375.391327 635.744446,374.698090 632.295532,371.935272 
	C626.986877,367.682648 620.349731,367.194855 614.371826,364.870148 
	C612.150574,364.006317 611.063843,364.942261 610.276611,367.054565 
	C607.066284,375.669067 612.797974,386.879547 621.692810,389.183563 
	C630.172607,391.380005 641.573853,387.019775 646.419006,379.828949 
	C647.743774,377.862762 647.914856,376.506622 644.495178,375.698456 
M659.438721,375.419281 
	C664.210938,382.971741 675.967651,388.445404 683.357666,386.555450 
	C690.144897,384.819611 698.826965,372.506683 699.480225,363.429657 
	C690.204895,365.481781 680.862671,367.043518 671.870911,369.763763 
	C667.738770,371.013824 663.081116,371.682861 659.438721,375.419281 
M799.955200,250.893982 
	C802.229065,256.218475 801.173706,260.428833 796.263672,263.877960 
	C793.038940,266.143250 793.169128,270.239319 794.658630,272.924988 
	C796.320374,275.921570 799.505493,273.524536 801.652954,272.382568 
	C814.922668,265.325958 816.523071,248.206421 809.253784,236.271057 
	C807.669312,233.669632 805.218933,233.194794 802.323914,234.693787 
	C795.512024,238.220886 794.789062,242.041443 799.955200,250.893982 
M516.182007,274.490875 
	C519.298218,275.285797 523.171265,277.485229 525.084045,273.762360 
	C526.284241,271.426575 524.807190,267.661743 522.289062,265.812164 
	C513.405762,259.287231 513.331909,259.387817 516.526794,248.933609 
	C517.956604,244.255096 514.836182,239.820435 509.204865,238.527939 
	C505.168640,237.601532 502.283508,239.734894 501.559235,244.927933 
	C499.987183,256.199677 503.398621,268.940460 516.182007,274.490875 
M583.589600,405.489899 
	C586.791809,404.495026 586.910156,401.462311 587.485718,399.021667 
	C589.316956,391.256378 587.918518,390.014038 580.147583,391.916962 
	C571.407288,394.057343 562.875793,396.883911 554.509827,400.143829 
	C550.142517,401.845581 545.250793,402.614075 541.738098,406.691193 
	C555.470886,407.415802 569.118042,406.563873 583.589600,405.489899 
M715.526245,600.036377 
	C715.521667,598.420837 716.004883,596.732605 714.905029,595.322327 
	C714.523132,595.158569 714.221252,594.913025 713.924744,594.919373 
	C709.288330,595.018311 704.652649,595.151123 700.016724,595.273376 
	C694.049500,595.430725 692.145813,598.608643 695.137146,603.825684 
	C696.147278,605.587463 697.063538,607.218933 697.206116,609.286438 
	C697.437561,612.644958 699.404175,614.932129 702.506775,615.736511 
	C705.621399,616.544128 708.043945,614.749268 709.525146,612.161621 
	C711.642090,608.463501 713.430603,604.577332 715.526245,600.036377 
M698.866516,590.682068 
	C702.011169,590.479309 705.167969,590.389221 708.298096,590.051514 
	C716.193542,589.199646 716.156372,589.030945 716.081604,580.909607 
	C716.046204,577.060669 714.382263,575.853271 710.843445,576.423218 
	C706.587585,577.108765 702.333130,577.810852 698.063354,578.399536 
	C694.855530,578.841675 692.891418,580.023499 693.143738,583.805725 
	C693.373901,587.256287 693.005005,590.744873 698.866516,590.682068 
M515.779358,418.772186 
	C514.909241,415.072357 513.188843,411.677124 512.334351,407.907013 
	C511.427124,403.904388 507.053558,403.289856 503.535736,402.402802 
	C500.690765,401.685364 498.212036,402.550201 496.660095,405.163208 
	C494.967468,408.013153 493.310791,410.897369 491.871765,413.879303 
	C491.189850,415.292267 490.312042,417.251526 492.222839,418.331421 
	C493.881989,419.269104 495.581360,419.215973 496.743866,416.966278 
	C497.792786,414.936371 499.359283,415.435974 500.756134,416.933838 
	C501.582794,417.820282 501.676300,419.535065 503.742737,419.451294 
	C503.742737,418.438141 503.713654,417.475403 503.749298,416.515076 
	C503.808289,414.925629 503.115997,412.910950 505.201263,412.194946 
	C507.186432,411.513336 508.072998,413.391602 509.195374,414.537445 
	C511.169800,416.553131 512.932190,418.838562 515.149353,420.531921 
	C516.539551,421.593719 515.998230,419.992065 515.779358,418.772186 
M628.095520,607.634033 
	C629.067566,609.430969 628.574951,611.066711 627.814941,612.841614 
	C626.422058,616.094788 628.712830,617.656738 631.216980,618.179932 
	C633.997070,618.760803 637.387146,618.513123 638.200317,615.161499 
	C638.833679,612.551270 637.049438,610.460754 634.047607,610.041870 
	C632.775513,609.864380 631.321106,610.061584 630.664978,608.511353 
	C632.722290,605.206421 632.789368,605.121948 635.466248,607.246887 
	C636.709412,608.233704 637.791870,609.356445 639.324524,608.095093 
	C641.377441,606.405579 641.026123,603.887024 641.133972,601.621155 
	C641.233704,599.526550 639.560547,599.422424 638.012512,599.336060 
	C634.043152,599.114746 630.071655,598.923340 626.106201,598.645203 
	C623.958313,598.494507 621.479553,597.830200 620.419800,600.325867 
	C619.428406,602.660461 619.568237,605.170898 621.734985,607.068481 
	C623.605469,607.127686 623.624756,604.641968 625.340820,604.665466 
	C626.584778,605.000244 627.066406,606.114746 628.095520,607.634033 
M727.440308,412.295624 
	C722.226440,413.349640 717.007446,414.378693 711.800415,415.465424 
	C707.597046,416.342743 707.583191,419.805725 707.649658,422.928833 
	C707.724243,426.432434 710.436829,427.020111 713.320374,427.085968 
	C718.315308,427.200043 728.837524,420.192169 730.407776,415.651489 
	C731.106995,413.629456 730.452576,412.410950 727.440308,412.295624 
M626.597290,593.803223 
	C630.400146,594.071777 634.199280,594.430115 638.006775,594.585449 
	C642.483276,594.768188 641.687866,591.289185 641.927551,588.616211 
	C642.175415,585.851624 641.245178,584.153381 638.080627,584.225525 
	C633.435669,584.331482 628.781006,584.418274 624.141357,584.236633 
	C620.028198,584.075500 619.104736,586.065613 619.256897,589.760376 
	C619.455627,594.586060 622.894775,593.503357 626.597290,593.803223 
M599.728149,442.139587 
	C598.713684,442.983887 597.682617,443.809174 596.687927,444.676117 
	C593.825439,447.171051 594.158630,448.260284 597.801758,450.107147 
	C601.700378,452.083557 605.407593,451.765717 609.538391,452.118103 
	C609.972473,447.463013 610.136780,442.910828 606.928955,439.801636 
	C604.934387,437.868469 602.437134,440.592560 599.728149,442.139587 
M522.792480,188.623886 
	C519.381287,192.600006 517.050964,197.043213 517.102234,202.422745 
	C517.115051,203.771378 517.572388,205.160049 519.164734,205.469650 
	C520.767395,205.781250 521.568054,204.604614 522.205444,203.399490 
	C523.596741,200.769012 524.990356,198.137527 526.289673,195.461182 
	C527.905090,192.133850 527.170044,189.684677 522.792480,188.623886 
M520.185303,261.038635 
	C522.131897,258.309753 520.660522,256.192993 518.998230,253.571884 
	C516.518066,256.651062 517.208313,258.848602 520.185303,261.038635 
M730.967896,405.016113 
	C732.033630,405.531586 733.284424,405.245941 733.255859,404.196136 
	C733.184082,401.553680 731.421143,400.014191 728.910950,398.856476 
	C728.518494,401.296112 729.598328,402.920563 730.967896,405.016113 
M797.377686,253.152176 
	C794.519775,253.606140 794.215149,255.723969 796.584717,259.035950 
	C798.533081,257.570496 797.969055,255.632645 797.377686,253.152176 
z"/>
<path fill="#000000" opacity="1.000000" stroke="none" 
	d="
M333.320068,705.945557 
	C362.188812,704.445251 390.524353,702.292847 418.623413,697.706299 
	C421.160217,697.292236 423.926117,697.213135 426.341705,693.230286 
	C395.353851,687.344666 364.527679,686.923157 333.950104,684.439148 
	C333.973022,683.951599 333.995941,683.463989 334.018860,682.976440 
	C337.096039,682.749634 340.194122,682.171753 343.246979,682.353455 
	C361.542450,683.442627 379.834503,680.970276 398.142090,682.547668 
	C408.427765,683.433838 418.718842,684.011475 428.694794,686.915405 
	C430.286377,687.378723 431.862549,687.967163 433.352448,688.690125 
	C435.469849,689.717590 437.685181,690.906860 437.770874,693.625427 
	C437.855865,696.321167 435.831696,697.685852 433.729279,698.855652 
	C427.671783,702.226135 420.980682,703.774048 414.301575,705.028931 
	C395.160645,708.625183 375.790497,710.289551 356.357178,711.384460 
	C340.406006,712.283264 324.476044,713.628296 308.479431,713.298279 
	C306.234375,713.251892 303.769562,713.812073 301.118652,710.898193 
	C311.732239,706.927490 322.496674,707.558716 333.320068,705.945557 
z"/>
<path fill="#000000" opacity="1.000000" stroke="none" 
	d="
M307.000305,278.999298 
	C312.255768,275.084290 317.511261,271.169281 322.773499,267.249237 
	C323.373566,268.130157 323.751801,268.439362 323.702820,268.648529 
	C319.227905,287.761719 305.459137,310.011536 283.899506,314.461121 
	C264.068909,318.553864 245.772095,314.754517 230.796738,300.315338 
	C223.785706,293.555359 220.175400,284.913025 219.638687,275.103394 
	C222.337967,274.178375 223.521317,275.983307 224.947052,276.888428 
	C248.729187,291.986053 273.418060,293.843018 299.064240,282.082153 
	C301.034424,281.178680 302.945190,280.157318 305.358612,280.316223 
	C291.878479,289.664154 276.652252,292.600006 260.546844,291.835297 
	C253.418274,291.496826 246.559738,289.485413 238.861084,287.388062 
	C244.048401,292.913208 249.683289,296.008636 256.025055,297.534882 
	C267.796112,300.367706 279.457031,298.591522 290.997162,295.837189 
	C298.119873,294.137207 303.792236,290.301361 307.167480,283.634033 
	C307.867737,282.250763 309.654236,280.430756 307.000305,278.999298 
z"/>
<path fill="#000000" opacity="1.000000" stroke="none" 
	d="
M317.267761,201.747925 
	C325.439911,201.239838 332.054901,203.877823 337.747040,208.968918 
	C338.931641,210.028427 340.645294,211.345352 339.017914,213.090881 
	C337.622498,214.587555 336.289795,213.170761 335.170074,212.226120 
	C326.847992,205.205368 317.935303,203.395538 308.101410,209.009354 
	C306.846100,209.725967 305.237366,210.717514 304.207855,208.854218 
	C303.231689,207.087494 304.732269,206.140442 306.025879,205.349762 
	C309.342255,203.322769 313.030762,202.385208 317.267761,201.747925 
z"/>
<path fill="#000000" opacity="1.000000" stroke="none" 
	d="
M222.926819,209.601395 
	C215.173538,208.414734 208.268677,209.214478 202.349304,214.284744 
	C201.302933,215.181015 199.925995,215.841949 198.876648,214.388611 
	C198.046204,213.238464 198.946594,212.243622 199.729797,211.324966 
	C205.139175,204.980042 221.046539,202.750443 228.134262,207.397980 
	C228.489868,207.631165 228.619171,208.209503 228.972672,208.838593 
	C227.389923,211.306931 225.309631,210.282669 222.926819,209.601395 
z"/>
<path fill="#000000" opacity="1.000000" stroke="none" 
	d="
M259.685486,264.360382 
	C256.801331,261.996887 255.650040,259.643616 258.407990,256.282715 
	C263.004913,264.546509 271.357330,262.176910 278.976410,263.461670 
	C276.312805,267.564209 273.049957,268.689819 269.345947,267.865906 
	C266.149048,267.154816 263.118134,265.697601 259.685486,264.360382 
z"/>
<path fill="#000000" opacity="1.000000" stroke="none" 
	d="
M318.104492,236.197800 
	C315.703217,237.660385 313.677856,237.802246 312.309998,235.496048 
	C311.397766,233.957993 311.676544,232.307343 313.018585,231.029709 
	C314.214478,229.891205 315.672638,229.718704 317.080658,230.536926 
	C319.312317,231.833801 319.769897,233.670456 318.104492,236.197800 
z"/>
<path fill="#000000" opacity="1.000000" stroke="none" 
	d="
M221.224548,235.368988 
	C219.424179,237.339569 217.627014,237.701447 215.871170,236.092606 
	C214.499527,234.835800 214.488403,233.178513 215.447540,231.633698 
	C216.189056,230.439407 217.368347,229.737473 218.778549,230.191788 
	C221.114883,230.944427 222.290161,232.474197 221.224548,235.368988 
z"/>
<path fill="#000000" opacity="1.000000" stroke="none" 
	d="
M668.340820,331.642029 
	C650.067627,337.139771 633.236755,334.082275 617.792847,324.256622 
	C606.631775,317.155823 601.184082,306.205170 599.489075,291.269135 
	C626.844421,310.746613 654.556396,312.905884 684.125793,298.438721 
	C680.498901,303.611603 671.553467,306.916809 654.613708,309.822968 
	C643.965515,311.649719 633.547424,309.271179 622.928833,307.699127 
	C625.654419,312.152679 630.131958,314.024475 634.514648,315.294250 
	C648.987671,319.487183 663.292664,317.348022 677.013062,312.133636 
	C683.497253,309.669312 688.322693,304.629211 689.031799,296.945496 
	C689.086487,296.352631 689.342957,295.559814 689.780762,295.254700 
	C694.239441,292.147247 698.755249,289.121704 703.499939,285.907379 
	C703.754150,297.244019 689.039856,325.344360 668.340820,331.642029 
z"/>
<path fill="#000000" opacity="1.000000" stroke="none" 
	d="
M712.513306,223.261353 
	C715.286438,224.879272 717.653687,226.409775 719.423767,228.680313 
	C720.084412,229.527786 720.353882,230.487442 719.538147,231.372437 
	C718.712463,232.268341 717.721130,232.051163 716.853821,231.433273 
	C715.369019,230.375549 713.980713,229.179993 712.477661,228.150696 
	C705.431580,223.325394 698.023682,222.882141 690.317566,226.428177 
	C689.865845,226.636017 689.440857,226.904205 688.983398,227.096832 
	C687.514343,227.715408 685.669250,229.174118 684.628113,227.137146 
	C683.444824,224.822083 685.878113,224.022751 687.387878,223.264328 
	C694.006348,219.939545 700.887329,218.796127 708.069275,221.327545 
	C709.472351,221.822083 710.817322,222.481506 712.513306,223.261353 
z"/>
<path fill="#000000" opacity="1.000000" stroke="none" 
	d="
M578.943115,231.899689 
	C584.167114,224.229828 599.994934,220.557236 607.442261,224.909241 
	C608.514771,225.536011 609.434021,226.259766 608.930725,227.647156 
	C608.406738,229.091415 607.167236,229.004623 606.013245,228.652832 
	C597.482971,226.052429 589.650940,227.095444 582.623962,232.888275 
	C581.354187,233.935013 579.882812,234.205368 578.943115,231.899689 
z"/>
<path fill="#000000" opacity="1.000000" stroke="none" 
	d="
M644.676453,284.660675 
	C637.144775,281.609253 635.958252,279.606873 638.945007,274.598267 
	C643.323730,282.594360 651.431702,280.790192 658.421265,282.109100 
	C655.786011,286.709869 653.394958,287.161896 644.676453,284.660675 
z"/>
<path fill="#000000" opacity="1.000000" stroke="none" 
	d="
M595.298950,250.536560 
	C596.931396,248.114349 598.786621,247.558609 600.949036,249.031235 
	C602.511108,250.095078 602.837158,251.726196 602.112976,253.393692 
	C601.393127,255.051498 599.924561,255.979370 598.145691,255.618973 
	C595.658447,255.115036 594.641541,253.407150 595.298950,250.536560 
z"/>
<path fill="#000000" opacity="1.000000" stroke="none" 
	d="
M697.335327,248.707123 
	C699.674072,250.122330 699.956055,251.954819 698.993713,253.932480 
	C698.291443,255.375656 696.877686,255.960846 695.291260,255.743652 
	C693.672974,255.522064 692.495056,254.474396 692.292847,252.914352 
	C691.838623,249.410217 693.776855,248.227997 697.335327,248.707123 
z"/>
<path fill="#000000" opacity="1.000000" stroke="none" 
	d="
M515.653992,508.997437 
	C515.650269,498.171967 515.525452,487.843811 515.706238,477.521057 
	C515.774292,473.634674 514.436951,471.945282 510.499817,472.335541 
	C508.685730,472.515350 506.838806,472.366272 505.006775,472.362335 
	C497.822632,472.346893 497.457123,471.826996 497.698334,464.703125 
	C497.797577,461.772186 498.947052,460.420074 501.776825,460.243561 
	C509.424255,459.766602 515.224487,457.355133 518.331787,449.171509 
	C519.908508,445.019043 525.516052,447.197205 529.306885,447.381592 
	C532.216797,447.523102 531.383606,450.311890 531.386902,452.165741 
	C531.428528,475.482300 531.424988,498.798981 531.417419,522.115601 
	C531.417053,523.077820 531.263916,524.040039 531.198669,524.806091 
	C530.604370,525.125000 530.326233,525.393677 530.029114,525.416565 
	C515.665161,526.521851 515.664978,526.519470 515.653992,508.997437 
z"/>
</svg>