<?xml version="1.0" standalone="no"?>
<!DOCTYPE svg PUBLIC "-//W3C//DTD SVG 20010904//EN"
 "http://www.w3.org/TR/2001/REC-SVG-20010904/DTD/svg10.dtd">
<svg version="1.0" xmlns="http://www.w3.org/2000/svg"
 width="840.000000pt" height="746.000000pt" viewBox="0 0 840.000000 746.000000"
 preserveAspectRatio="xMidYMid meet">

<g transform="translate(0.000000,746.000000) scale(0.100000,-0.100000)"
fill="#000000" stroke="none">
<path d="M2984 7040 c-41 -16 -34 -29 36 -66 39 -20 86 -51 103 -68 l32 -31
-145 -8 c-501 -26 -786 -74 -1029 -172 -174 -71 -262 -150 -401 -358 -136
-204 -247 -442 -315 -677 l-34 -115 -42 93 c-24 50 -49 92 -56 92 -19 0 -375
-175 -508 -250 -222 -125 -392 -253 -410 -311 -5 -16 92 -194 411 -752 230
-403 424 -741 431 -753 12 -18 11 -24 -8 -48 -15 -20 -22 -45 -25 -92 l-4 -66
57 -55 c57 -56 120 -92 159 -93 18 0 58 -64 223 -352 199 -349 250 -453 739
-1483 l71 -150 73 -53 c40 -29 73 -56 73 -61 0 -4 -25 -28 -55 -52 -135 -110
-143 -197 -23 -255 82 -41 171 -41 232 -1 24 16 56 51 73 78 17 27 32 49 32
49 1 0 125 -90 276 -199 151 -110 277 -198 279 -196 2 2 -7 58 -19 125 -12 67
-20 123 -18 126 3 2 17 0 32 -6 62 -23 168 1 230 52 30 24 36 36 36 67 0 48
-43 113 -106 161 -90 68 -92 71 -87 113 5 34 8 38 32 35 l26 -3 67 505 c36
278 75 568 85 644 l19 140 77 23 c60 18 77 28 77 42 0 27 -35 227 -80 457 -22
110 -40 204 -40 210 0 5 46 22 102 38 194 53 221 77 194 170 -29 97 -196 315
-380 496 l-76 74 63 29 c34 16 114 49 177 74 341 134 520 298 639 584 141 337
159 816 45 1214 -48 167 -100 250 -246 391 -158 152 -377 305 -508 354 -33 12
-60 26 -60 30 0 4 21 27 46 50 44 40 49 42 96 38 40 -4 48 -2 46 10 -7 38
-290 86 -371 64 -35 -10 -40 -8 -80 25 -84 71 -193 101 -263 73z m154 -45 c29
-14 73 -41 97 -60 l43 -36 62 11 c46 8 81 8 138 0 42 -7 80 -14 83 -16 4 -2
-18 -28 -48 -58 -59 -59 -66 -88 -23 -95 111 -15 413 -217 583 -388 110 -112
149 -167 187 -265 77 -199 123 -548 102 -773 -8 -84 -9 -88 -20 -60 -24 59
-37 77 -65 91 -39 21 -81 10 -127 -33 -33 -29 -40 -42 -46 -91 l-7 -57 -18 80
c-10 44 -22 94 -25 110 -7 27 -6 29 10 16 12 -11 20 -11 28 -3 16 16 -8 40
-75 76 l-54 30 5 87 c4 73 1 100 -22 180 -24 85 -117 299 -130 299 -3 0 10
-33 28 -72 73 -160 106 -288 106 -411 0 -59 -3 -77 -12 -73 -51 21 -191 60
-283 80 -60 12 -110 27 -110 32 1 5 5 39 9 76 11 89 -13 233 -56 336 -61 147
-187 332 -299 437 -50 47 -44 36 32 -67 118 -159 202 -316 256 -476 29 -87 37
-126 41 -211 l5 -104 -41 7 c-113 18 -306 36 -439 41 -212 9 -211 8 -234 58
-14 31 -19 65 -19 135 0 83 -2 92 -19 92 -36 0 -56 -48 -56 -135 1 -44 4 -92
8 -106 l7 -27 -43 11 c-59 14 -287 13 -382 -2 -232 -37 -526 -131 -784 -252
-57 -27 -108 -49 -114 -49 -16 0 0 137 28 234 14 49 41 123 60 164 20 41 33
77 30 80 -7 8 -80 -151 -111 -243 -35 -104 -46 -256 -20 -284 13 -14 16 -33
14 -77 l-3 -58 -74 150 c-88 175 -88 178 -37 346 83 272 197 502 363 730 113
154 219 230 418 296 238 79 611 132 932 132 136 0 163 8 163 46 0 31 -32 64
-104 104 -31 18 -56 34 -56 36 0 13 73 0 118 -21z m-321 -1355 c28 -25 35 -26
233 -38 337 -19 610 -62 796 -123 136 -45 148 -55 172 -136 41 -136 55 -225
55 -363 1 -162 -13 -225 -79 -358 -87 -174 -245 -313 -489 -433 -160 -78 -302
-127 -478 -165 -67 -14 -142 -34 -167 -44 -70 -28 -199 -52 -245 -45 -22 4
-60 19 -85 33 -25 15 -96 44 -159 64 -273 91 -542 260 -591 373 -10 22 -86
182 -169 355 l-152 315 -6 130 -6 131 131 57 c273 120 492 190 710 227 136 24
318 26 416 5 38 -8 71 -13 74 -11 2 3 -1 28 -7 56 -15 71 -13 106 4 45 8 -30
24 -59 42 -75z m-1430 -508 c144 -301 397 -829 562 -1174 166 -344 301 -628
301 -631 0 -2 -30 -22 -66 -43 -37 -21 -84 -59 -105 -83 -38 -42 -39 -47 -39
-115 0 -107 10 -176 26 -176 8 0 14 5 14 11 0 8 5 8 15 -1 20 -17 41 1 51 43
l8 32 8 -44 c13 -75 35 -81 48 -14 l8 38 1 -36 c1 -42 24 -79 40 -64 6 6 21
55 34 110 21 92 25 100 48 103 23 3 39 -26 299 -570 150 -315 276 -577 278
-583 3 -5 -42 35 -99 90 -133 129 -205 185 -235 185 -21 0 -24 -4 -24 -41 0
-50 28 -132 124 -364 41 -99 73 -182 70 -184 -5 -5 5 -18 -109 142 -166 233
-269 328 -250 231 8 -47 73 -194 141 -321 30 -57 52 -103 48 -103 -4 0 -46 33
-93 73 -264 225 -310 232 -298 48 4 -47 9 -99 13 -116 4 -16 5 -28 2 -25 -3 3
-118 244 -257 536 -209 439 -286 591 -451 880 l-199 349 28 12 c27 11 61 52
61 73 0 5 -19 18 -42 27 l-42 17 43 14 c78 26 66 61 -24 71 l-57 6 54 35 c99
65 69 97 -76 79 -46 -6 -73 -5 -82 2 -7 6 -23 9 -35 7 -19 -3 -70 82 -450 746
-334 585 -426 753 -419 767 26 47 204 176 379 274 116 64 460 234 476 235 6 0
128 -247 272 -548z m2902 157 c44 -73 47 -200 7 -278 -30 -56 -112 -111 -167
-111 -19 0 -21 4 -15 31 3 17 6 44 6 60 0 18 5 29 14 29 8 0 24 12 36 27 26
33 22 78 -9 122 -32 45 -27 83 14 120 48 42 89 42 114 0z m-125 -154 c10 -20
15 -44 11 -54 -6 -21 -43 -57 -50 -49 -8 8 7 148 15 143 4 -3 15 -21 24 -40z
m110 -266 c-91 -253 -227 -417 -449 -540 l-60 -33 78 74 c144 135 233 292 255
448 l7 47 48 7 c47 6 103 35 127 63 23 27 21 9 -6 -66z m-2266 -706 l63 -40
-59 -21 c-33 -12 -64 -22 -69 -22 -8 0 -93 169 -93 186 0 3 21 -10 48 -29 26
-19 75 -53 110 -74z m142 -83 c15 -15 20 -33 20 -75 0 -67 -19 -118 -54 -140
-47 -31 -67 -18 -113 75 -23 47 -41 91 -40 99 2 14 107 58 145 60 12 0 31 -8
42 -19z m1150 -68 c-6 -32 -6 -81 0 -134 6 -46 10 -83 10 -84 0 -1 31 -22 70
-47 72 -49 82 -64 84 -136 l1 -36 -110 -22 c-153 -31 -391 -66 -725 -108 -157
-19 -303 -37 -326 -40 l-41 -6 -96 201 c-53 110 -97 205 -97 210 0 6 7 10 15
10 9 0 30 7 46 16 42 21 69 83 69 162 0 66 1 68 30 52 16 -9 18 -22 17 -97 -1
-90 11 -130 52 -177 53 -60 176 -75 269 -31 31 14 75 48 107 81 l54 57 45 -41
c103 -95 223 -123 303 -70 49 33 93 97 135 200 28 68 36 80 63 87 16 4 31 7
33 6 1 -1 -2 -25 -8 -53z m184 -32 c166 -175 266 -300 317 -397 31 -58 37
-114 16 -131 -53 -45 -544 -158 -1197 -277 -135 -25 -255 -47 -266 -50 -21 -5
-23 2 -44 116 -12 66 -20 122 -17 125 3 3 144 23 314 44 553 69 868 123 928
159 57 34 20 94 -120 193 -38 27 -73 59 -77 71 -3 12 -6 60 -7 107 -1 92 13
130 48 130 10 0 57 -41 105 -90z m-1014 -15 c65 -38 114 -56 167 -63 l58 -7
-48 -52 c-64 -68 -129 -96 -212 -91 -108 7 -158 66 -158 189 0 36 3 71 6 76 7
11 145 -28 187 -52z m730 59 c0 -3 -15 -38 -34 -78 -76 -166 -160 -206 -291
-139 -43 22 -133 98 -125 105 11 10 211 67 290 83 47 10 94 21 105 26 24 9 55
11 55 3z m330 -410 c0 -13 -18 -29 -24 -23 -2 2 -7 20 -11 39 l-7 35 21 -19
c11 -11 21 -25 21 -32z m-2355 -6 c6 0 43 4 83 8 39 4 72 4 72 1 0 -4 -36 -25
-80 -47 -44 -22 -80 -44 -80 -49 0 -11 50 -21 106 -21 63 0 54 -15 -16 -29
-59 -12 -84 -27 -58 -36 7 -2 33 -10 58 -17 l45 -12 -45 -6 c-53 -6 -58 -19
-12 -34 37 -13 33 -26 -8 -26 -32 0 -103 45 -154 98 -32 34 -37 44 -31 70 9
42 73 115 94 106 9 -3 21 -6 26 -6z m2399 -525 c75 -388 77 -406 60 -419 -18
-14 -215 -67 -372 -99 -150 -32 -385 -64 -486 -67 l-79 -3 -144 299 c-79 165
-140 303 -136 306 4 4 78 20 163 35 183 32 711 137 825 164 134 32 116 56 169
-216z m-1304 203 c0 -2 7 -39 15 -82 8 -45 11 -82 6 -88 -5 -6 -12 -31 -16
-56 -13 -79 -24 -80 -25 -2 0 83 -13 93 -38 30 l-17 -43 -5 45 c-6 58 -31 61
-42 6 -11 -53 -21 -60 -16 -12 4 53 -16 57 -41 9 l-20 -38 -1 46 c0 38 5 51
33 79 45 47 167 124 167 106z m1230 -720 c0 -26 -161 -1231 -166 -1235 -8 -9
-216 16 -223 27 -3 6 -24 111 -45 234 -31 178 -44 235 -68 283 -29 56 -31 67
-38 235 -5 96 -10 218 -11 270 l-3 94 134 22 c74 13 177 32 229 43 52 12 96
20 97 18 1 -1 -3 -46 -10 -100 -7 -57 -9 -100 -4 -103 15 -9 16 -4 29 108 10
82 16 108 28 111 33 9 51 7 51 -7z m-577 -118 c3 -18 8 -127 12 -243 l5 -210
-65 130 -64 130 6 107 6 107 41 4 c23 2 44 4 47 5 4 1 9 -13 12 -30z m-123
-58 c0 -38 -4 -70 -8 -70 -7 0 -72 122 -72 135 0 3 18 5 40 5 l40 0 0 -70z
m-148 -241 c29 -23 118 -107 198 -188 l146 -146 78 -445 c43 -245 79 -454 79
-465 1 -12 -5 -21 -18 -23 -11 -2 -45 -15 -77 -29 l-56 -25 -354 256 -353 257
-22 70 c-30 93 -63 256 -63 312 0 58 8 77 30 77 21 0 137 -84 265 -193 88 -76
115 -90 115 -64 0 8 -36 83 -80 168 -66 130 -130 274 -130 295 0 28 108 -100
244 -288 137 -190 162 -185 80 15 -96 237 -135 338 -148 389 -21 82 -12 86 66
27z m571 -835 l37 -7 0 -83 c0 -82 -1 -84 -26 -90 -26 -7 -94 18 -94 33 0 5
-6 41 -14 81 l-14 72 37 0 c20 0 53 -3 74 -6z m-698 -182 c-7 -8 -35 7 -35 18
0 6 7 6 20 -2 10 -7 17 -14 15 -16z"/>
<path d="M2595 6635 c-304 -57 -529 -284 -620 -626 -32 -122 -55 -277 -53
-359 0 -36 3 -51 5 -35 13 103 50 264 82 364 122 372 332 589 628 651 100 21
65 25 -42 5z"/>
<path d="M1546 5863 c-6 -14 -5 -15 5 -6 7 7 10 15 7 18 -3 3 -9 -2 -12 -12z"/>
<path d="M3126 5439 c-44 -10 -96 -39 -96 -52 0 -10 10 -8 80 18 68 25 139 15
207 -30 60 -40 80 -40 43 0 -51 54 -157 83 -234 64z"/>
<path d="M2055 5390 c-49 -23 -75 -44 -75 -59 0 -16 4 -14 46 14 65 44 135 53
222 29 16 -5 22 -2 22 9 0 32 -152 37 -215 7z"/>
<path d="M2143 5144 c-8 -20 21 -49 41 -41 9 4 16 18 16 32 0 20 -5 25 -25 25
-14 0 -28 -7 -32 -16z"/>
<path d="M3114 5145 c-7 -18 12 -45 32 -45 16 0 33 30 27 48 -7 17 -52 15 -59
-3z"/>
<path d="M2565 4890 c-32 -51 136 -118 190 -76 19 15 18 15 -20 16 -66 1 -119
17 -142 44 -12 15 -25 21 -28 16z"/>
<path d="M3155 4743 c-46 -33 -63 -53 -74 -85 -35 -103 -136 -158 -333 -178
-122 -12 -196 -2 -277 40 -48 25 -121 82 -121 95 0 3 17 -2 38 -10 76 -30 168
-45 267 -43 l100 1 -125 7 c-168 9 -292 51 -407 137 -30 22 -33 22 -33 5 0
-10 7 -43 16 -73 61 -204 263 -327 523 -317 93 3 114 7 171 34 78 37 164 113
216 192 44 65 107 205 102 226 -2 9 -23 -1 -63 -31z"/>
<path d="M2828 4583 c7 -3 16 -2 19 1 4 3 -2 6 -13 5 -11 0 -14 -3 -6 -6z"/>
<path d="M2778 4573 c6 -2 18 -2 25 0 6 3 1 5 -13 5 -14 0 -19 -2 -12 -5z"/>
<path d="M3377 2283 c-14 -90 -20 -203 -10 -203 12 0 19 41 29 163 4 49 3 77
-3 77 -6 0 -13 -17 -16 -37z"/>
<path d="M3346 2010 c-14 -89 -19 -190 -9 -190 10 0 33 144 33 203 0 41 -17
32 -24 -13z"/>
<path d="M3317 1758 c-3 -18 -9 -60 -12 -93 -3 -33 -8 -70 -11 -82 -3 -15 0
-23 9 -23 10 0 17 27 25 94 7 52 12 104 12 115 0 33 -17 24 -23 -11z"/>
<path d="M3286 1504 c-10 -26 -7 -134 4 -134 6 0 10 10 10 23 0 12 3 46 6 75
5 33 3 52 -4 52 -5 0 -13 -7 -16 -16z"/>
<path d="M6990 6630 c-47 -10 -128 -33 -180 -52 l-95 -34 -74 18 c-231 54
-512 44 -717 -26 -170 -57 -303 -144 -429 -277 -213 -228 -402 -642 -470
-1031 -9 -51 -25 -113 -35 -138 -27 -66 -32 -105 -20 -190 5 -41 14 -135 20
-208 18 -223 80 -412 175 -537 l38 -50 -30 -55 c-16 -30 -41 -62 -56 -70 -24
-13 -28 -13 -56 8 -66 48 -69 14 -6 -56 96 -106 229 -136 363 -80 66 27 73 24
51 -26 -12 -25 -44 -42 -87 -48 -46 -6 -25 -23 47 -38 l74 -16 -99 -43 c-120
-53 -283 -134 -335 -167 -21 -13 -50 -24 -63 -24 -41 0 -56 -10 -96 -70 l-38
-57 -304 -12 c-167 -7 -304 -14 -304 -14 -2 -3 -145 -1460 -144 -1469 0 -5
327 -8 726 -8 l726 0 44 -49 c52 -58 105 -90 194 -120 65 -21 238 -51 296 -51
l32 0 6 -142 c3 -79 7 -211 9 -295 l2 -152 -27 -16 c-43 -25 -138 -115 -153
-146 -39 -74 6 -144 112 -175 140 -41 254 29 298 180 21 72 43 276 57 528 l12
216 81 7 c44 3 138 13 209 21 71 8 130 13 132 12 1 -2 5 -57 8 -123 16 -312
41 -546 66 -629 41 -130 120 -193 234 -184 65 6 132 33 166 70 24 26 26 77 5
117 -16 32 -118 128 -152 144 -27 12 -28 30 -16 424 l6 231 96 17 c53 9 179
34 280 56 101 21 186 39 189 39 9 0 -8 141 -29 233 -44 199 -141 513 -275 891
-35 99 -64 183 -64 187 0 5 19 13 43 19 104 27 196 63 216 83 12 13 21 36 21
53 -1 61 -73 178 -197 321 -35 40 -63 74 -63 76 0 2 43 7 95 11 123 8 223 30
297 63 69 31 153 114 145 144 -3 11 0 19 6 19 56 0 260 150 243 178 -4 7 -29
12 -55 12 -33 0 -58 7 -82 23 -45 30 -48 68 -15 251 14 77 32 191 40 251 11
83 21 122 41 158 49 86 44 232 -10 311 -13 19 -26 53 -30 77 -3 24 -20 96 -36
159 -16 63 -54 218 -84 343 -85 348 -158 530 -278 689 -164 218 -407 301 -697
238z m360 -36 c173 -52 300 -170 409 -382 68 -133 112 -267 177 -532 30 -124
68 -277 84 -341 38 -147 38 -169 5 -169 -16 0 -42 -16 -70 -41 -41 -38 -45
-46 -45 -87 0 -25 -3 -42 -7 -39 -5 6 -53 182 -53 196 0 3 5 0 12 -7 16 -16
38 -15 38 2 0 18 -38 48 -96 77 -34 16 -44 26 -39 38 35 90 -7 287 -100 472
-30 58 -43 66 -19 12 42 -98 66 -164 85 -233 23 -87 37 -244 22 -253 -5 -3
-50 7 -99 23 -49 15 -136 38 -194 50 l-105 22 0 137 c0 112 -4 148 -22 206
-52 163 -159 336 -294 477 -66 68 -74 74 -45 33 150 -206 253 -392 300 -537
28 -86 49 -216 44 -268 -3 -34 -4 -35 -43 -34 -22 0 -107 8 -190 17 -82 9
-215 19 -295 23 -125 6 -148 9 -167 26 -27 25 -43 96 -43 188 0 81 -16 92 -51
38 -18 -29 -20 -44 -16 -136 4 -93 3 -103 -12 -96 -9 4 -81 9 -161 11 -168 6
-325 -16 -519 -72 l-113 -32 7 61 c16 151 78 376 140 512 74 163 200 317 319
389 36 22 65 42 65 45 0 3 -25 25 -57 48 l-57 44 -22 -51 c-30 -68 -40 -106
-24 -97 6 4 -29 -32 -77 -81 -178 -176 -263 -390 -295 -741 l-12 -133 -140
-53 c-77 -29 -189 -76 -249 -104 -60 -29 -111 -50 -114 -48 -2 3 1 44 8 93 13
102 63 259 115 365 21 40 33 69 27 63 -17 -17 -99 -187 -125 -260 -43 -120
-57 -279 -28 -308 6 -6 11 -41 10 -82 l-1 -70 -16 45 c-9 25 -21 51 -25 58
-13 19 -83 52 -112 52 -14 0 -25 2 -25 5 0 22 57 265 81 346 83 281 225 557
371 724 149 170 304 265 533 326 62 17 119 22 255 26 98 3 193 0 215 -5 l40
-10 -33 -1 -34 -1 47 -55 c26 -30 55 -55 64 -55 9 0 43 23 76 50 33 28 63 50
67 50 23 0 12 -23 -27 -55 -25 -20 -45 -40 -45 -44 0 -8 153 -32 160 -25 2 3
-5 32 -16 64 l-21 60 52 19 c183 69 388 86 525 45z m-753 -1109 c28 -50 38
-53 243 -65 402 -23 717 -79 912 -162 53 -22 57 -32 100 -203 19 -75 22 -117
23 -260 0 -160 -2 -175 -28 -250 -16 -44 -47 -111 -69 -150 -53 -89 -189 -225
-293 -293 -175 -115 -427 -215 -672 -267 -65 -13 -151 -36 -191 -50 -129 -46
-243 -43 -297 5 -11 10 -77 37 -146 59 -374 122 -629 322 -778 611 -92 179
-130 329 -138 545 l-6 150 54 24 c306 133 511 204 714 246 201 41 361 44 529
8 l29 -6 -6 44 c-4 24 -9 67 -12 94 l-5 50 13 -55 c7 -30 18 -64 24 -75z
m1502 -394 c49 -90 38 -226 -26 -302 -30 -35 -92 -69 -128 -69 -23 0 -25 3
-25 49 0 44 3 51 35 75 29 23 35 33 35 65 0 24 -9 52 -25 75 -35 52 -27 97 24
132 51 35 80 29 110 -25z m-2969 -21 c37 -27 44 -60 24 -122 -15 -45 -16 -54
-3 -77 8 -14 29 -33 46 -41 24 -11 36 -27 48 -59 8 -25 15 -49 15 -54 0 -5
-26 -8 -60 -5 -122 9 -203 109 -204 251 0 69 12 112 38 130 16 11 64 0 96 -23z
m2835 -110 c8 -16 15 -39 15 -51 0 -23 -26 -59 -42 -59 -9 0 -11 100 -2 124 8
22 11 20 29 -14z m-2762 -50 c20 -72 20 -70 3 -70 -36 0 -59 65 -40 114 11 28
20 17 37 -44z m-86 -216 c25 -12 59 -19 98 -19 l61 0 19 -60 c29 -93 110 -247
176 -334 103 -137 277 -282 422 -352 26 -13 47 -26 47 -30 0 -3 -42 -21 -92
-39 -51 -18 -137 -50 -190 -71 -72 -28 -106 -37 -130 -33 -60 10 -61 11 -37
43 27 37 39 131 17 131 -8 0 -41 -14 -73 -32 -79 -43 -179 -50 -250 -19 -27
12 -57 29 -67 38 -17 15 -17 17 13 35 41 25 62 51 90 110 l22 47 -48 63 c-26
35 -63 95 -81 134 -51 110 -93 296 -94 416 l0 46 30 -28 c16 -15 46 -36 67
-46z m2937 -16 c-3 -24 -21 -136 -41 -250 -29 -175 -33 -213 -23 -243 14 -42
50 -72 96 -81 19 -3 36 -10 39 -14 8 -13 -63 -67 -125 -97 -45 -22 -73 -28
-152 -31 -54 -2 -98 -8 -98 -13 0 -48 53 -83 113 -73 l32 5 -30 -25 c-71 -61
-172 -92 -358 -107 l-128 -11 -85 87 c-47 48 -83 89 -81 91 2 2 50 27 106 54
325 159 522 374 577 629 l17 80 41 7 c23 3 52 12 66 20 38 20 41 18 34 -28z
m-156 -760 c-16 -10 -98 -11 -98 0 0 4 25 7 55 8 33 0 50 -3 43 -8z m-1856
-60 c10 -9 13 -21 9 -37 -6 -22 -7 -22 -23 13 -18 37 -13 45 14 24z m1048 -45
c24 -121 53 -205 81 -232 22 -21 96 -180 86 -186 -30 -22 -1018 -165 -1140
-165 l-30 0 7 96 7 97 -104 -7 -104 -7 16 82 c15 77 19 83 45 90 35 10 63 35
83 73 l15 29 18 -40 c35 -78 113 -119 210 -110 74 6 132 37 198 104 58 60 49
60 121 -1 82 -68 203 -96 270 -62 57 30 113 112 157 231 17 47 29 64 46 65 4
0 12 -26 18 -57z m-97 0 c-67 -161 -125 -223 -211 -223 -62 0 -264 130 -222
143 8 3 44 14 80 26 36 12 106 30 155 41 50 11 113 26 140 34 75 21 76 21 58
-21z m-804 1 c47 -15 93 -33 101 -39 34 -29 87 -47 148 -53 l65 -7 -45 -50
c-60 -66 -126 -99 -198 -99 -108 0 -167 55 -177 163 -5 57 1 111 13 111 3 0
45 -12 93 -26z m-299 -245 c0 -26 -34 -155 -42 -160 -5 -3 -105 -9 -221 -13
-117 -3 -237 -9 -267 -12 -81 -9 -57 6 110 69 187 71 327 113 413 126 4 1 7
-4 7 -10z m1423 -103 c28 -36 34 -56 18 -56 -5 0 -16 -3 -24 -6 -10 -4 -19 7
-30 38 -8 24 -18 51 -22 62 -7 16 -5 17 12 8 11 -6 32 -27 46 -46z m-2235 -31
c44 -20 52 -28 52 -51 0 -15 12 -56 26 -91 14 -36 24 -69 22 -75 -2 -6 -33 21
-68 61 -36 41 -67 68 -72 63 -5 -5 -4 -28 1 -53 6 -24 10 -57 10 -74 0 -27 -4
-23 -32 33 -17 34 -36 61 -42 59 -6 -2 -9 -26 -7 -56 2 -31 -1 -51 -7 -51 -6
0 -11 9 -11 19 0 30 -11 51 -26 51 -9 0 -14 -12 -14 -37 -1 -36 -1 -37 -16
-18 -20 26 -13 81 20 148 32 66 61 97 89 97 12 0 46 -11 75 -25z m978 -132
c-3 -42 -6 -98 -6 -124 0 -46 -2 -50 -38 -68 -58 -29 -140 -97 -156 -130 -12
-21 -14 -50 -10 -117 3 -49 7 -99 10 -111 5 -27 33 -31 35 -5 1 16 2 16 6 0 5
-21 31 -24 38 -5 2 6 10 26 17 42 l12 30 6 -50 c7 -71 32 -68 45 5 l10 55 3
-51 c4 -60 -25 -674 -32 -681 -2 -3 -45 23 -95 57 -50 33 -97 63 -105 66 -10
4 -16 -26 -25 -138 -7 -79 -14 -153 -17 -165 l-4 -23 -800 0 -800 0 5 38 c6
40 135 1348 135 1367 0 8 49 14 158 19 86 3 215 9 285 13 l128 6 -7 -51 c-6
-45 -3 -56 25 -105 24 -43 38 -56 62 -61 41 -8 49 -1 49 39 0 48 12 50 41 4
37 -61 55 -49 51 36 l-3 70 48 -47 c81 -80 105 -55 64 65 -11 32 -19 58 -18
59 4 2 703 35 796 36 l94 2 -7 -77z m1338 -270 c206 -580 333 -1022 324 -1129
l-3 -38 -105 -23 c-286 -61 -613 -115 -905 -149 -214 -25 -634 -26 -764 -1
-124 23 -229 68 -283 120 l-43 42 85 3 85 3 125 97 125 98 15 315 c9 172 19
321 23 329 4 8 16 55 26 103 11 49 21 90 23 92 2 2 94 20 203 40 260 47 707
137 865 173 69 16 134 30 145 31 17 1 27 -16 59 -106z m-1305 -5 c10 -64 9
-82 -8 -148 l-19 -75 -1 67 c-1 37 -5 69 -10 72 -12 8 -28 -13 -36 -47 -11
-42 -25 -32 -25 18 0 59 -23 61 -37 3 l-11 -43 -1 38 c-1 47 -19 45 -42 -3
l-16 -34 -7 31 c-10 43 13 83 71 125 62 44 116 76 124 72 3 -2 11 -36 18 -76z
m-192 -915 c40 -27 73 -51 73 -54 0 -8 -171 -141 -176 -136 -3 3 0 51 6 107 5
56 10 108 10 116 0 21 7 18 87 -33z m1261 -470 l-3 -78 -115 -5 c-63 -3 -117
-4 -120 -2 -3 2 -5 31 -5 65 l0 62 105 16 c157 25 141 31 138 -58z m-738 -63
l0 -60 -102 0 c-144 0 -148 2 -148 59 0 26 3 51 7 54 3 4 60 7 125 7 l118 0 0
-60z m729 -197 c-1 -82 -4 -200 -8 -263 l-6 -115 -35 -3 c-41 -3 -126 47 -140
82 -9 24 -26 181 -35 333 l-7 102 33 4 c19 2 71 5 117 5 l82 2 -1 -147z m-750
98 c11 -7 12 -31 7 -122 -8 -124 -24 -284 -32 -311 -12 -43 -139 -103 -170
-81 -8 5 -14 94 -19 266 l-7 257 103 0 c57 0 110 -4 118 -9z"/>
<path d="M6388 6503 c-14 -21 -33 -51 -43 -66 l-18 -29 74 8 c128 12 127 11
73 72 -25 28 -49 52 -53 52 -5 0 -19 -17 -33 -37z"/>
<path d="M6315 6525 c-5 -2 -36 -9 -67 -15 -32 -6 -58 -15 -58 -20 0 -9 99
-84 104 -79 2 2 20 30 40 62 35 55 36 57 14 56 -13 0 -27 -2 -33 -4z"/>
<path d="M6832 6450 c11 -33 25 -60 32 -60 18 0 89 77 82 88 -6 10 -91 32
-121 32 -11 0 -10 -12 7 -60z"/>
<path d="M6950 6425 c-24 -24 -42 -47 -39 -49 6 -6 112 -46 123 -46 11 0 -3
111 -16 128 -15 18 -20 16 -68 -33z"/>
<path d="M6008 6428 c-38 -17 -68 -34 -68 -39 0 -9 84 -69 98 -69 5 0 18 24
30 53 11 28 23 60 27 70 10 24 -8 21 -87 -15z"/>
<path d="M7065 6393 c10 -69 16 -93 25 -93 5 0 27 21 49 48 l41 47 -47 22
c-72 33 -76 31 -68 -24z"/>
<path d="M7167 6336 c-20 -25 -37 -47 -37 -50 0 -6 131 -79 134 -74 2 1 -4 39
-13 83 -11 54 -21 81 -31 83 -8 1 -32 -18 -53 -42z"/>
<path d="M5890 6301 c-7 -32 -11 -63 -9 -68 2 -5 33 7 68 28 l64 37 -42 27
c-67 42 -67 42 -81 -24z"/>
<path d="M5786 6289 c-36 -28 -66 -55 -66 -58 0 -12 97 -54 107 -48 5 3 15 32
22 64 7 32 15 66 17 76 8 28 -9 20 -80 -34z"/>
<path d="M7287 6263 c8 -43 16 -80 18 -81 5 -5 95 79 95 87 0 9 -103 71 -117
71 -7 0 -6 -24 4 -77z"/>
<path d="M7380 6204 l-45 -45 25 -19 c14 -11 44 -34 68 -51 l43 -31 -7 84 c-6
76 -16 108 -33 108 -4 0 -27 -20 -51 -46z"/>
<path d="M5682 6148 c2 -28 8 -53 13 -54 6 -2 27 12 49 30 l38 33 -37 21 c-58
35 -67 30 -63 -30z"/>
<path d="M7495 6113 c4 -43 10 -81 14 -86 8 -8 80 43 81 58 0 14 -79 105 -92
105 -7 0 -8 -26 -3 -77z"/>
<path d="M5619 6123 c-15 -15 -34 -40 -43 -54 l-17 -27 37 -7 c53 -10 69 9 58
70 l-9 46 -26 -28z"/>
<path d="M7575 6026 l-40 -34 34 -36 c19 -20 38 -36 42 -36 4 0 10 17 13 38 4
20 9 44 12 53 2 8 -2 23 -9 33 -12 16 -15 14 -52 -18z"/>
<path d="M5508 5962 c-57 -102 -52 -112 17 -37 36 38 65 73 65 77 0 4 -12 8
-27 8 -23 0 -33 -9 -55 -48z"/>
<path d="M7657 5964 c-17 -59 -18 -84 -5 -84 8 0 22 6 32 13 18 13 18 15 -2
52 -16 33 -20 36 -25 19z"/>
<path d="M7610 5861 c0 -6 4 -13 10 -16 6 -3 7 1 4 9 -7 18 -14 21 -14 7z"/>
<path d="M7682 5861 c-11 -6 -8 -14 12 -37 24 -27 25 -28 26 -7 0 25 -9 53
-19 53 -3 0 -12 -4 -19 -9z"/>
<path d="M6920 5253 c-48 -17 -80 -37 -80 -49 0 -16 16 -19 25 -4 3 5 31 17
62 26 72 21 136 8 204 -41 27 -19 51 -30 54 -26 8 14 -71 77 -114 89 -39 12
-124 15 -151 5z"/>
<path d="M5875 5214 c-48 -17 -103 -59 -92 -70 4 -5 16 -3 25 4 58 42 105 55
189 49 88 -5 108 5 46 22 -51 15 -120 12 -168 -5z"/>
<path d="M5954 4966 c-10 -26 4 -48 28 -44 17 2 23 10 23 28 0 18 -6 26 -23
28 -13 2 -25 -3 -28 -12z"/>
<path d="M6924 4966 c-10 -26 4 -48 28 -44 17 2 23 10 23 28 0 18 -6 26 -23
28 -13 2 -25 -3 -28 -12z"/>
<path d="M6370 4692 c0 -28 41 -58 99 -72 43 -10 53 -9 83 7 l33 18 -45 3
c-79 4 -109 12 -140 38 -28 24 -30 25 -30 6z"/>
<path d="M6954 4555 c-39 -28 -69 -56 -66 -63 2 -7 -8 -33 -23 -58 -50 -86
-151 -126 -345 -140 -108 -7 -192 9 -263 51 -50 29 -114 92 -82 81 62 -22 164
-46 195 -45 28 1 24 3 -20 10 -90 15 -202 57 -279 104 -40 25 -74 45 -76 45
-10 0 20 -106 45 -157 68 -139 222 -228 430 -249 235 -23 446 137 541 413 10
31 18 57 17 58 -2 1 -35 -21 -74 -50z"/>
<path d="M6648 4403 c7 -3 16 -2 19 1 4 3 -2 6 -13 5 -11 0 -14 -3 -6 -6z"/>
<path d="M6608 4393 c7 -3 16 -2 19 1 4 3 -2 6 -13 5 -11 0 -14 -3 -6 -6z"/>
<path d="M6533 4383 c9 -2 25 -2 35 0 9 3 1 5 -18 5 -19 0 -27 -2 -17 -5z"/>
<path d="M6433 4373 c15 -2 37 -2 50 0 12 2 0 4 -28 4 -27 0 -38 -2 -22 -4z"/>
<path d="M5165 2948 c-24 -51 -62 -75 -136 -85 l-54 -8 0 -50 0 -50 88 -3 87
-3 0 -264 0 -265 75 0 75 0 0 385 0 385 -58 0 -58 0 -19 -42z"/>
<path d="M3480 629 c47 -4 195 -18 330 -29 235 -20 435 -44 473 -56 27 -9 15
-27 -26 -41 -83 -28 -543 -79 -872 -98 -142 -8 -343 -33 -364 -45 -25 -15 286
-12 540 5 512 34 807 97 797 169 -4 29 -75 62 -178 82 -66 12 -165 16 -435 19
-242 2 -324 1 -265 -6z"/>
</g>
</svg>
